{"title":"Thomas &amp; Friends The Thomas Way 2013 DVDRIP XVID AC3 D3LBOY","uid":9685169,"size":658696572,"categoryP":"video","categoryS":"movies","magnet":"?xt=urn:btih:30f9db74a151ab28f97d17bff0bc55641f4361d1&amp;dn=Thomas+%26amp%3B+Friends+The+Thomas+Way+2013+DVDRIP+XVID+AC3+D3LBOY&amp;tr=udp%3A%2F%2Ftracker.openbittorrent.com%3A80&amp;tr=udp%3A%2F%2Fopen.demonii.com%3A1337&amp;tr=udp%3A%2F%2Ftracker.coppersurfer.tk%3A6969&amp;tr=udp%3A%2F%2Fexodus.desync.com%3A6969","seeders":9,"leechers":3,"uploader":".SceNe.","files":3,"time":1393750228,"description":" &lt;a href=&quot;http://lookpic.com/O/i2/1892/AwRX5GYf.jpeg&quot; rel=&quot;nofollow&quot; target=&quot;_NEW&quot;&gt;http://lookpic.com/O/i2/1892/AwRX5GYf.jpeg&lt;/a&gt;\n\nGet ready for fun and frolics on Sodor as the engines find out that there is always something new to learn! While Thomas and Duck learn how to steam ahead together with a special delivery, Luke and Millie find out what it's like to drive in each other's tracks - literally! Percy steams straight into a lucky encounter with Bill and Ben, Caitlin gets a lesson in how things are done and Paxton works hard to recover Thomas' lost puff. It's always important to remember, that the only way is not always Thomas' way!\n &lt;a href=&quot;\nhttp://www.amazon.co.uk/Thomas-Friends-The-Way-DVD/dp/B00GMFL9JS&quot; rel=&quot;nofollow&quot; target=&quot;_NEW&quot;&gt;\nhttp://www.amazon.co.uk/Thomas-Friends-The-Way-DVD/dp/B00GMFL9JS&lt;/a&gt;\n\nFormat: AVI\nFormat/Info: Audio Video Interleave\nFile size: 604 MiB\nDuration: 58mn 10s\nOverall bit rate: 1 452 Kbps\nWriting library: VirtualDub build 30091/release\n\nVideo\nID: 0\nFormat: MPEG-4 Visual\nFormat profile: Advanced Simple@L5\nFormat settings, BVOP: 2\nFormat settings, QPel: No\nFormat settings, GMC: No warppoints\nFormat settings, Matrix: Default (H.263)\nMuxing mode: Packed bitstream\nCodec ID: XVID\nCodec ID/Hint: XviD\nDuration: 58mn 10s\nBit rate: 1 248 Kbps\nWidth: 720 pixels\nHeight: 400 pixels\nDisplay aspect ratio: 16:9\nFrame rate: 29.970 fps\nColor space: YUV\nChroma subsampling: 4:2:0\nBit depth: 8 bits\nScan type: Progressive\nCompression mode: Lossy\nBits/(Pixel*Frame): 0.145\nStream size: 519 MiB (86%)\nWriting library: XviD 1.2.1 (UTC 2008-12-04)\n\nAudio\nID: 1\nFormat: AC-3\nFormat/Info: Audio Coding 3\nMode extension: CM (complete main)\nFormat settings, Endianness: Big\nCodec ID: 2000\nDuration: 58mn 9s\nBit rate mode: Constant\nBit rate: 192 Kbps\nChannel count: 2 channels\nChannel positions: Front: L R\nSampling rate: 48.0 KHz\nBit depth: 16 bits\nCompression mode: Lossy\nStream size: 79.9 MiB (13%)\nAlignment: Aligned on interleaves\nInterleave, duration: 33 ms (1.00 video frame)\nInterleave, preload duration: 512 ms\n\nSource:\nThomas &amp; Friends The Thomas Way, 2013[DVDR]\n &lt;a href=&quot;\nhttp://lookpic.com/O/i2/1113/41TLjcij.jpeg&quot; rel=&quot;nofollow&quot; target=&quot;_NEW&quot;&gt;\nhttp://lookpic.com/O/i2/1113/41TLjcij.jpeg&lt;/a&gt; &lt;a href=&quot;\nhttp://lookpic.com/O/i2/162/bT9vBsEM.jpeg&quot; rel=&quot;nofollow&quot; target=&quot;_NEW&quot;&gt;\nhttp://lookpic.com/O/i2/162/bT9vBsEM.jpeg&lt;/a&gt;","torrent":{"xt":"urn:btih:30f9db74a151ab28f97d17bff0bc55641f4361d1","amp;dn":"Thomas+%26amp%3B+Friends+The+Thomas+Way+2013+DVDRIP+XVID+AC3+D3LBOY","amp;tr":["udp%3A%2F%2Ftracker.openbittorrent.com%3A80","udp%3A%2F%2Fopen.demonii.com%3A1337","udp%3A%2F%2Ftracker.coppersurfer.tk%3A6969","udp%3A%2F%2Fexodus.desync.com%3A6969"],"infoHash":"30f9db74a151ab28f97d17bff0bc55641f4361d1","infoHashBuffer":{"type":"Buffer","data":[48,249,219,116,161,81,171,40,249,125,23,191,240,188,85,100,31,67,97,209]},"announce":[],"urlList":[]}}